<?xml version="1.0" encoding="UTF-8"?>
<svg width="73px" height="98px" viewBox="0 0 73 98" version="1.1" xmlns="http://www.w3.org/2000/svg" xmlns:xlink="http://www.w3.org/1999/xlink">
    <!-- Generator: Sketch 59.1 (86144) - https://sketch.com -->
    <title>Group</title>
    <desc>Created with Sketch.</desc>
    <g id="Symbols" stroke="none" stroke-width="1" fill="none" fill-rule="evenodd" stroke-linecap="round" stroke-linejoin="round">
        <g id="Sandbox/Icons/Twitter" transform="translate(-12.000000, 1.000000)" stroke="#525865">
            <g id="Group" transform="translate(13.000000, 0.000000)">
                <path d="M0,12.5217391 C0,5.60556522 5.609,0 12.5294118,0 C19.4498235,0 25.0588235,5.60556522 25.0588235,12.5217391 L25.0588235,20.8695652 L58.4705882,20.8695652 C65.391,20.8695652 71,26.4751304 71,33.3913043 C71,40.3074783 65.391,45.9130435 58.4705882,45.9130435 L25.0588235,45.9130435 L25.0588235,58.4347826 C25.0588235,65.3509565 30.6678235,70.9565217 37.5882353,70.9565217 L58.4705882,70.9565217 C65.391,70.9565217 71,76.562087 71,83.4782609 C71,90.3944348 65.391,96 58.4705882,96 L33.4117647,96 C14.9601176,96 0,81.0490435 0,62.6086957 L0,12.5217391 Z" id="Path"></path>
            </g>
        </g>
    </g>
</svg>